<?xml version="1.0" standalone="no"?>
<!DOCTYPE svg PUBLIC "-//W3C//DTD SVG 20010904//EN"
 "http://www.w3.org/TR/2001/REC-SVG-20010904/DTD/svg10.dtd">
<svg version="1.0" xmlns="http://www.w3.org/2000/svg"
 width="512.000000pt" height="512.000000pt" viewBox="0 0 512.000000 512.000000"
 preserveAspectRatio="xMidYMid meet">
<g transform="translate(0.000000,512.000000) scale(0.100000,-0.100000)"
fill="#10106d" stroke="none">
<path d="M510 2560 l0 -2560 2050 0 2050 0 0 2560 0 2560 -2050 0 -2050 0 0
-2560z m2213 1981 c15 -5 12 -10 -20 -25 -152 -71 -823 -420 -823 -427 0 -5
59 -132 131 -282 72 -149 158 -327 190 -394 37 -77 67 -127 81 -134 33 -18
104 -15 172 6 69 22 267 120 378 188 146 89 125 70 -202 -179 -96 -73 -289
-221 -429 -329 -140 -107 -258 -192 -262 -188 -7 7 -288 584 -369 758 -15 33
-130 271 -254 529 -124 258 -226 473 -226 478 0 10 1607 10 1633 -1z m1734
-52 c-13 -31 -143 -301 -730 -1519 -643 -1336 -864 -1795 -899 -1870 l-39 -85
-307 -147 c-986 -474 -1137 -546 -1140 -543 -6 6 170 152 1021 850 114 93 204
171 199 173 -5 1 -149 -65 -320 -147 -172 -82 -312 -146 -312 -143 1 4 153
140 339 302 186 162 337 297 336 298 -5 5 -102 -47 -698 -372 -290 -159 -530
-286 -532 -284 -4 4 205 175 908 743 136 110 244 201 239 203 -4 1 -99 -29
-210 -68 -111 -38 -202 -65 -202 -60 0 5 61 77 135 161 75 83 134 153 131 156
-2 2 -198 -102 -436 -232 -238 -130 -434 -234 -437 -232 -2 3 176 200 396 438
220 239 397 435 393 437 -7 2 -140 -61 -760 -359 -89 -43 -162 -75 -162 -71 0
4 236 190 523 413 287 223 938 729 1447 1125 1019 793 1124 874 1128 869 2 -1
-3 -18 -11 -36z m-2512 -2785 c14 -22 15 -28 3 -39 -12 -11 -417 -244 -478
-275 -23 -11 -24 -11 -10 3 27 29 445 337 456 337 7 0 19 -12 29 -26z m-257
-817 c10 -17 13 -30 7 -36 -17 -15 -507 -293 -511 -289 -5 6 470 358 479 355
5 -1 16 -15 25 -30z m-584 -52 c9 -13 16 -29 16 -34 0 -5 -100 -66 -222 -137
-291 -167 -315 -179 -303 -166 14 16 479 361 486 362 4 0 14 -11 23 -25z"/>
<path d="M2916 3112 c-181 -147 -333 -274 -338 -282 -7 -11 19 -67 95 -205 57
-104 109 -191 114 -192 5 -2 85 151 178 339 226 461 296 608 287 607 -4 0
-155 -120 -336 -267z"/>
</g>
</svg>
